<?xml version="1.0" standalone="no"?>
<!DOCTYPE svg PUBLIC "-//W3C//DTD SVG 20010904//EN"
 "http://www.w3.org/TR/2001/REC-SVG-20010904/DTD/svg10.dtd">
<svg version="1.0" xmlns="http://www.w3.org/2000/svg"
 width="512.000000pt" height="512.000000pt" viewBox="0 0 512.000000 512.000000"
 preserveAspectRatio="xMidYMid meet">
<metadata>
Created by potrace 1.14, written by Peter Selinger 2001-2017
</metadata>
<g transform="translate(0.000000,512.000000) scale(0.100000,-0.100000)"
fill="#000000" stroke="none">
<path d="M3396 5085 c-71 -37 -86 -75 -86 -217 0 -121 14 -163 68 -203 40 -29
127 -27 171 4 50 36 61 73 61 208 0 100 -3 123 -20 151 -40 65 -128 91 -194
57z"/>
<path d="M2349 4650 c-60 -17 -107 -69 -112 -122 -5 -62 13 -97 91 -175 94
-95 122 -112 182 -106 94 7 152 89 133 186 -7 35 -140 180 -186 204 -36 18
-74 23 -108 13z"/>
<path d="M4510 4653 c-56 -16 -191 -136 -223 -199 -59 -115 69 -249 190 -199
39 16 155 125 184 173 26 41 27 110 2 152 -30 51 -104 86 -153 73z"/>
<path d="M3340 4494 c-118 -21 -155 -29 -220 -51 -316 -104 -583 -386 -669
-704 -18 -64 -24 -97 -37 -194 -1 -11 -3 -41 -3 -67 l-1 -46 -932 -1 c-641 -1
-952 -5 -993 -13 -223 -41 -407 -217 -465 -444 -19 -73 -20 -113 -20 -758 0
-447 4 -695 11 -720 6 -21 12 -48 15 -60 2 -11 20 -55 41 -96 68 -135 206
-253 350 -299 78 -25 119 -30 241 -31 l102 0 0 -479 c0 -423 2 -481 16 -495 8
-9 24 -16 34 -16 21 0 36 15 170 175 120 144 114 137 195 235 38 47 77 93 85
102 8 9 101 120 205 247 l190 230 706 0 c419 1 727 5 758 11 175 33 336 152
420 310 66 123 64 110 68 616 l4 462 92 21 c400 93 709 419 792 836 14 70 17
256 5 336 -60 412 -359 750 -768 866 -69 20 -116 25 -227 28 -77 2 -151 2
-165 -1z"/>
<path d="M4755 3568 c-85 -31 -119 -130 -72 -212 34 -61 74 -76 193 -76 123 0
154 6 186 33 87 75 72 198 -29 251 -37 19 -228 22 -278 4z"/>
<path d="M4346 2596 c-39 -22 -76 -85 -76 -130 0 -15 9 -43 19 -64 28 -52 155
-172 198 -187 76 -26 171 26 190 104 16 65 -2 105 -87 192 -107 109 -166 130
-244 85z"/>
</g>
</svg>
